# Blender v2.82 (sub 7) OBJ File: 'MagnetCrude.blend'
# www.blender.org
mtllib MagnetCrude.mtl
o Cube
v -0.934252 0.515545 0.534789
v -0.934252 0.684455 0.534789
v -1.165748 0.515545 0.534789
v -1.165748 0.684455 0.534789
v -0.934252 0.515545 -0.534788
v -0.934252 0.684455 -0.534788
v -1.165748 0.515545 -0.534788
v -1.165748 0.684455 -0.534788
v -0.934252 0.684455 0.300406
v -1.165748 0.515545 0.300406
v -1.165748 0.684455 0.300406
v -0.934252 0.515545 0.300406
v -0.934252 0.684455 -0.299476
v -1.165748 0.515545 -0.299476
v -1.165748 0.684455 -0.299476
v -0.934252 0.515545 -0.299476
vt 0.819999 0.500000
vt 0.819999 0.750000
vt 0.875000 0.750000
vt 0.875000 0.500000
vt 0.375000 0.944999
vt 0.375000 1.000000
vt 0.625000 1.000000
vt 0.625000 0.944999
vt 0.375000 0.000000
vt 0.375000 0.250000
vt 0.625000 0.250000
vt 0.625000 0.000000
vt 0.320216 0.500000
vt 0.320216 0.750000
vt 0.375000 0.750000
vt 0.375000 0.500000
vt 0.625000 0.750000
vt 0.625000 0.500000
vt 0.375000 0.445216
vt 0.625000 0.445216
vt 0.375000 0.804784
vt 0.625000 0.804784
vt 0.679784 0.750000
vt 0.679784 0.500000
vt 0.125000 0.500000
vt 0.125000 0.750000
vt 0.180001 0.750000
vt 0.180001 0.500000
vt 0.375000 0.305001
vt 0.625000 0.305001
vn 0.0000 -1.0000 -0.0000
vn -1.0000 0.0000 0.0000
vn 0.0000 0.0000 -1.0000
vn 0.0000 1.0000 0.0000
vn 0.0000 0.0000 1.0000
vn 1.0000 0.0000 0.0000
usemtl White
s off
f 16/1/1 14/2/1 7/3/1 5/4/1
f 15/5/2 8/6/2 7/7/2 14/8/2
f 8/9/3 6/10/3 5/11/3 7/12/3
f 9/13/4 11/14/4 4/15/4 2/16/4
f 2/16/5 4/15/5 3/17/5 1/18/5
f 9/19/6 2/16/6 1/18/6 12/20/6
f 4/15/2 11/21/2 10/22/2 3/17/2
f 1/18/1 3/17/1 10/23/1 12/24/1
f 6/25/4 8/26/4 15/27/4 13/28/4
f 6/10/6 13/29/6 16/30/6 5/11/6
usemtl Red
f 13/29/6 9/19/6 12/20/6 16/30/6
f 13/28/4 15/27/4 11/14/4 9/13/4
f 11/21/2 15/5/2 14/8/2 10/22/2
f 12/24/1 10/23/1 14/2/1 16/1/1
o Cube.001
v -1.084645 -0.009250 0.035441
v -1.084645 0.540535 0.035441
v -1.084645 -0.009250 -0.035441
v -1.084645 0.540535 -0.035441
v -1.013763 -0.009250 0.035441
v -1.013763 0.540535 0.035441
v -1.013763 -0.009250 -0.035441
v -1.013763 0.540535 -0.035441
vt 0.516717 0.000169
vt 0.516717 0.999831
vt 0.387834 0.999831
vt 0.387834 0.000169
vt 0.258274 0.000169
vt 0.258274 0.999831
vt 0.129391 0.999831
vt 0.129391 0.000169
vt 0.129052 0.000169
vt 0.129052 0.999831
vt 0.000169 0.999831
vt 0.000170 0.000169
vt 0.387495 0.000169
vt 0.387495 0.999831
vt 0.258612 0.999831
vt 0.258613 0.000169
vt 0.517056 0.129052
vt 0.517056 0.000169
vt 0.645938 0.000169
vt 0.645938 0.129052
vt 0.645938 0.129391
vt 0.645938 0.258274
vt 0.517056 0.258274
vt 0.517056 0.129391
vn -1.0000 0.0000 0.0000
vn 0.0000 0.0000 -1.0000
vn 1.0000 0.0000 0.0000
vn 0.0000 0.0000 1.0000
vn 0.0000 -1.0000 0.0000
vn 0.0000 1.0000 0.0000
usemtl Wood
s off
f 17/31/7 18/32/7 20/33/7 19/34/7
f 19/35/8 20/36/8 24/37/8 23/38/8
f 23/39/9 24/40/9 22/41/9 21/42/9
f 21/43/10 22/44/10 18/45/10 17/46/10
f 19/47/11 23/48/11 21/49/11 17/50/11
f 24/51/12 20/52/12 18/53/12 22/54/12
o Cube.002
v -1.575494 0.631305 -0.114559
v -1.106429 0.631305 -0.114559
v -1.575494 0.631305 -0.185441
v -1.106429 0.631305 -0.185441
v -1.575494 0.560423 -0.114559
v -1.106429 0.560423 -0.114559
v -1.575494 0.560423 -0.185441
v -1.106429 0.560423 -0.185441
vt 0.516717 0.000169
vt 0.516717 0.999831
vt 0.387834 0.999831
vt 0.387834 0.000169
vt 0.258274 0.000169
vt 0.258274 0.999831
vt 0.129391 0.999831
vt 0.129391 0.000169
vt 0.129052 0.000169
vt 0.129052 0.999831
vt 0.000169 0.999831
vt 0.000170 0.000169
vt 0.387495 0.000169
vt 0.387495 0.999831
vt 0.258612 0.999831
vt 0.258613 0.000169
vt 0.517056 0.129052
vt 0.517056 0.000169
vt 0.645938 0.000169
vt 0.645938 0.129052
vt 0.645938 0.129391
vt 0.645938 0.258274
vt 0.517056 0.258274
vt 0.517056 0.129391
vn -0.0000 1.0000 0.0000
vn -0.0000 0.0000 -1.0000
vn 0.0000 -1.0000 0.0000
vn 0.0000 0.0000 1.0000
vn -1.0000 0.0000 0.0000
vn 1.0000 0.0000 0.0000
usemtl Wood
s off
f 25/55/13 26/56/13 28/57/13 27/58/13
f 27/59/14 28/60/14 32/61/14 31/62/14
f 31/63/15 32/64/15 30/65/15 29/66/15
f 29/67/16 30/68/16 26/69/16 25/70/16
f 27/71/17 31/72/17 29/73/17 25/74/17
f 32/75/18 28/76/18 26/77/18 30/78/18
o Cube.003
v -1.575494 0.631305 0.185441
v -1.106429 0.631305 0.185441
v -1.575494 0.631305 0.114559
v -1.106429 0.631305 0.114559
v -1.575494 0.560423 0.185441
v -1.106429 0.560423 0.185441
v -1.575494 0.560423 0.114559
v -1.106429 0.560423 0.114559
vt 0.516717 0.000169
vt 0.516717 0.999831
vt 0.387834 0.999831
vt 0.387834 0.000169
vt 0.258274 0.000169
vt 0.258274 0.999831
vt 0.129391 0.999831
vt 0.129391 0.000169
vt 0.129052 0.000169
vt 0.129052 0.999831
vt 0.000169 0.999831
vt 0.000170 0.000169
vt 0.387495 0.000169
vt 0.387495 0.999831
vt 0.258612 0.999831
vt 0.258613 0.000169
vt 0.517056 0.129052
vt 0.517056 0.000169
vt 0.645938 0.000169
vt 0.645938 0.129052
vt 0.645938 0.129391
vt 0.645938 0.258274
vt 0.517056 0.258274
vt 0.517056 0.129391
vn -0.0000 1.0000 0.0000
vn -0.0000 0.0000 -1.0000
vn 0.0000 -1.0000 0.0000
vn 0.0000 0.0000 1.0000
vn -1.0000 0.0000 0.0000
vn 1.0000 0.0000 0.0000
usemtl Wood
s off
f 33/79/19 34/80/19 36/81/19 35/82/19
f 35/83/20 36/84/20 40/85/20 39/86/20
f 39/87/21 40/88/21 38/89/21 37/90/21
f 37/91/22 38/92/22 34/93/22 33/94/22
f 35/95/23 39/96/23 37/97/23 33/98/23
f 40/99/24 36/100/24 34/101/24 38/102/24
o Cylinder
v -1.192377 0.039433 -0.177606
v -1.500000 0.039433 -0.355212
v -1.192377 0.039433 0.177606
v -1.500000 0.039433 0.355212
v -1.148046 0.039433 -0.203201
v -1.500000 0.039433 -0.406402
v -1.148046 0.039433 0.203201
v -1.500000 0.039433 0.406402
v -0.998599 0.039433 -0.289484
v -1.500000 0.039433 -0.578968
v -0.998599 0.039433 0.289484
v -1.500000 0.039433 0.578968
v -0.941036 0.039433 -0.322718
v -1.500000 0.039433 -0.645436
v -0.941036 0.039433 0.322718
v -1.500000 0.039433 0.645436
v -0.708685 0.039433 -0.456866
v -1.500000 0.039433 -0.913732
v -0.708685 0.039433 0.456866
v -1.500000 0.039433 0.913732
v -0.648675 0.039433 -0.491512
v -1.500000 0.039433 -0.983025
v -0.648675 0.039433 0.491512
v -1.500000 0.039433 0.983025
v -0.417616 0.039433 -0.624915
v -1.500000 0.039433 -1.249830
v -0.417616 0.039433 0.624915
v -1.500000 0.039433 1.249830
v -0.363001 0.039433 -0.656446
v -1.500000 0.039433 -1.312893
v -0.363001 0.039433 0.656446
v -1.500000 0.039433 1.312893
v -0.115950 0.039433 -0.799082
v -0.115950 0.039433 0.799082
v -0.061003 0.039433 -0.830805
v -0.061003 0.039433 0.830805
v 0.212321 0.039433 -0.988609
v 0.212321 0.039433 0.988609
v 0.269359 0.039433 -1.021540
v 0.269359 0.039433 1.021540
v 0.522140 0.039433 -1.167483
v 0.522140 0.039433 1.167483
v 0.585269 0.039433 -1.203931
v 0.585269 0.039433 1.203931
v 0.882380 0.039433 -1.375467
v 0.882380 0.039433 1.375467
v 0.938935 0.039433 -1.408120
v 0.938935 0.039433 1.408120
v -1.220083 0.039433 1.500000
v -1.329975 0.039433 1.500000
v -0.053797 0.039433 1.500000
v -0.559358 0.039433 1.500000
v -0.673435 0.039433 1.500000
v 1.277473 0.039433 1.500000
v 1.208689 0.039433 1.500000
v 0.666683 0.039433 1.500000
v 0.779794 0.039433 1.500000
v 0.072462 0.039433 1.500000
v -0.053797 0.039433 -1.500000
v -0.673435 0.039433 -1.500000
v -0.559358 0.039433 -1.500000
v -1.329975 0.039433 -1.500000
v -1.220083 0.039433 -1.500000
v 0.779794 0.039433 -1.500000
v 0.666683 0.039433 -1.500000
v 0.072462 0.039433 -1.500000
v 1.277473 0.039433 -1.500000
v 1.208689 0.039433 -1.500000
vt 0.457846 0.130000
vt 0.457846 0.130000
vt 0.457846 0.370000
vt 0.457846 0.370000
vt 0.250000 0.010000
vt 0.250000 0.010000
vt 0.250000 0.490000
vt 0.250000 0.490000
vt 0.457846 0.130000
vt 0.457846 0.130000
vt 0.457846 0.370000
vt 0.457846 0.370000
vt 0.250000 0.010000
vt 0.250000 0.010000
vt 0.250000 0.490000
vt 0.250000 0.490000
vt 0.250000 0.010000
vt 0.250000 0.010000
vt 0.457846 0.130000
vt 0.457846 0.130000
vt 0.457846 0.370000
vt 0.457846 0.370000
vt 0.250000 0.490000
vt 0.250000 0.490000
vt 0.250000 0.010000
vt 0.250000 0.010000
vt 0.457846 0.130000
vt 0.457846 0.130000
vt 0.457846 0.370000
vt 0.457846 0.370000
vt 0.250000 0.490000
vt 0.250000 0.490000
vt 0.457846 0.370000
vt 0.457846 0.370000
vt 0.290431 0.466657
vt 0.275533 0.475259
vt 0.457846 0.130000
vt 0.457846 0.130000
vt 0.457846 0.370000
vt 0.457846 0.370000
vt 0.360497 0.426205
vt 0.350331 0.432074
vt 0.457846 0.130000
vt 0.457846 0.130000
vt 0.457846 0.370000
vt 0.457846 0.370000
vt 0.406733 0.399510
vt 0.398648 0.404178
vt 0.457846 0.130000
vt 0.457846 0.130000
vt 0.457846 0.370000
vt 0.457846 0.370000
vt 0.444284 0.377830
vt 0.439028 0.380865
vt 0.457846 0.130000
vt 0.457846 0.130000
vt 0.290431 0.033343
vt 0.275533 0.024741
vt 0.360497 0.073795
vt 0.350331 0.067926
vt 0.406733 0.100490
vt 0.398648 0.095822
vt 0.444284 0.122170
vt 0.439028 0.119135
vt 0.457846 0.137751
vt 0.457846 0.362249
vt 0.457846 0.365100
vt 0.457846 0.134900
vn 0.0000 1.0000 0.0000
usemtl Black
s off
f 43/103/25 47/104/25 45/105/25 41/106/25
f 44/107/25 48/108/25 47/104/25 43/103/25
f 41/106/25 45/105/25 46/109/25 42/110/25
f 51/111/25 55/112/25 53/113/25 49/114/25
f 52/115/25 56/116/25 55/112/25 51/111/25
f 49/114/25 53/113/25 54/117/25 50/118/25
f 60/119/25 64/120/25 63/121/25 59/122/25
f 57/123/25 61/124/25 62/125/25 58/126/25
f 59/122/25 63/121/25 61/124/25 57/123/25
f 68/127/25 72/128/25 71/129/25 67/130/25
f 65/131/25 69/132/25 70/133/25 66/134/25
f 67/130/25 71/129/25 69/132/25 65/131/25
f 73/135/25 75/136/25 103/137/25 102/138/25
f 74/139/25 76/140/25 75/136/25 73/135/25
f 77/141/25 79/142/25 101/143/25 100/144/25
f 78/145/25 80/146/25 79/142/25 77/141/25
f 81/147/25 83/148/25 106/149/25 99/150/25
f 82/151/25 84/152/25 83/148/25 81/147/25
f 85/153/25 87/154/25 104/155/25 105/156/25
f 86/157/25 88/158/25 87/154/25 85/153/25
f 89/159/25 76/140/25 74/139/25 90/160/25
f 92/161/25 80/146/25 78/145/25 93/162/25
f 98/163/25 84/152/25 82/151/25 91/164/25
f 97/165/25 88/158/25 86/157/25 96/166/25
f 94/167/25 107/168/25 108/169/25 95/170/25
