# Blender v2.83.0 OBJ File: 'Switch.blend'
# www.blender.org
mtllib Switch.mtl
o Cylinder
v 0.908258 0.119959 0.524383
v 0.908259 0.119959 -0.524383
v -0.908259 0.119959 -0.524383
v -0.908259 0.119959 0.524383
v -0.000000 0.119959 1.048767
v -0.000000 0.119959 -1.048767
v 0.908258 0.020876 0.524383
v 0.908259 0.020876 -0.524383
v -0.908259 0.020876 -0.524383
v -0.908259 0.020876 0.524383
v -0.000000 0.020876 1.048767
v -0.000000 0.020876 -1.048767
v 1.135323 0.001270 -0.655479
v 0.000000 0.001270 -1.310958
v 1.135323 0.001270 0.655479
v -0.000000 0.001270 1.310958
v -1.135323 0.001270 0.655479
v -1.135323 0.001270 -0.655479
v 0.000000 0.084772 -1.310958
v -0.000000 0.119959 -1.270328
v 1.100137 0.119959 -0.635164
v 1.135323 0.084772 -0.655479
v 1.100137 0.119959 0.635164
v 1.135323 0.084772 0.655479
v -0.000000 0.119959 1.270328
v -0.000000 0.084772 1.310958
v -1.100137 0.119959 0.635164
v -1.135323 0.084772 0.655479
v -1.100137 0.119959 -0.635164
v -1.135323 0.084772 -0.655479
vt 0.723870 -19.920883
vt 0.723845 13.947644
vt 0.723833 7.174209
vt 0.723830 0.400640
vt 0.723833 -6.373065
vt 0.723848 -13.146905
vt 0.315858 2.568123
vt 0.315856 4.636350
vt 0.184120 4.636350
vt 0.184123 2.568123
vt 0.315852 -3.636447
vt 0.315857 -1.568290
vt 0.184126 -1.568290
vt 0.184121 -3.636446
vt 0.442361 1.265242
vt 0.442361 -0.431269
vt 0.698612 -0.283323
vt 0.698612 1.117295
vt -0.783043 1.265241
vt -0.783042 -0.431269
vt -0.526791 -0.283323
vt -0.526791 1.117294
vt -0.267432 -0.431269
vt -0.267432 1.265241
vt -0.523683 1.117294
vt -0.523683 -0.283322
vt 0.315847 -5.704590
vt 0.184115 -5.704590
vt 0.374542 7.174209
vt 0.374530 0.400640
vt 0.315856 4.636350
vt 0.315852 6.704590
vt 0.184115 6.704590
vt 0.374530 -6.373063
vt 0.374536 -13.146905
vt 0.374563 13.947647
vt 0.374551 -19.920883
vt 0.374584 20.720943
vt 0.723866 20.720943
vt 0.000148 0.083456
vt 0.144443 0.000148
vt 0.288737 0.083456
vt 0.288737 0.250074
vt 0.144443 0.333382
vt 0.000148 0.250073
vt -0.170341 1.265242
vt -0.170341 -0.431269
vt 0.085911 -0.283323
vt 0.085911 1.117295
vt 0.748712 1.265241
vt 0.748712 -0.431269
vt 1.004963 -0.283322
vt 1.004963 1.117295
vt 0.315859 0.499910
vt 0.184126 0.499910
vt 0.345270 -0.431269
vt 0.345270 1.265241
vt 0.089018 1.117294
vt 0.089019 -0.283323
vt 0.371367 -1.536241
vt 0.371371 0.467861
vt 0.371371 0.531960
vt 0.371370 2.536073
vt 0.371370 2.600173
vt 0.371368 4.604300
vt 0.371368 4.668400
vt 0.371365 6.672540
vt 0.371358 -5.672542
vt 0.371361 -3.668496
vt 0.371361 -3.604399
vt 0.371367 -1.600339
vn 0.0000 1.0000 0.0000
vn 0.5000 0.0000 0.8660
vn -0.5000 0.0000 -0.8660
vn -1.0000 0.0000 0.0000
vn -0.5000 0.0000 0.8660
vn 0.5000 0.0000 -0.8660
vn 1.0000 0.0000 0.0000
vn 0.0000 -1.0000 -0.0000
vn 0.3536 0.7071 -0.6124
vn 0.7071 0.7071 0.0000
vn 0.3536 0.7071 0.6124
vn -0.3536 0.7071 0.6124
vn -0.7071 0.7071 0.0000
vn -0.3536 0.7071 -0.6124
usemtl Gap
s off
f 9/1/1 10/2/1 11/3/1 7/4/1 8/5/1 12/6/1
usemtl Wood
f 24/7/2 26/8/2 16/9/2 15/10/2
f 30/11/3 19/12/3 14/13/3 18/14/3
f 27/15/1 25/16/1 5/17/1 4/18/1
f 20/19/1 29/20/1 3/21/1 6/22/1
f 23/23/1 21/24/1 2/25/1 1/26/1
f 28/27/4 30/11/4 18/14/4 17/28/4
f 5/29/3 1/30/3 7/4/3 11/3/3
f 26/31/5 28/32/5 17/33/5 16/9/5
f 1/30/4 2/34/4 8/5/4 7/4/4
f 2/34/5 6/35/5 12/6/5 8/5/5
f 4/36/6 5/29/6 11/3/6 10/2/6
f 6/35/2 3/37/2 9/1/2 12/6/2
f 3/38/7 4/36/7 10/2/7 9/39/7
f 13/40/8 15/41/8 16/42/8 17/43/8 18/44/8 14/45/8
f 21/46/1 20/47/1 6/48/1 2/49/1
f 25/50/1 23/51/1 1/52/1 5/53/1
f 22/54/7 24/7/7 15/10/7 13/55/7
f 29/56/1 27/57/1 4/58/1 3/59/1
f 22/54/9 19/12/9 20/60/9 21/61/9
f 24/7/10 22/54/10 21/62/10 23/63/10
f 26/8/11 24/7/11 23/64/11 25/65/11
f 28/32/12 26/31/12 25/66/12 27/67/12
f 30/11/13 28/27/13 27/68/13 29/69/13
f 19/12/14 30/11/14 29/70/14 20/71/14
f 19/12/6 22/54/6 13/55/6 14/13/6
o Cube_Cube.003
v 1.140000 0.240000 1.260000
v 1.140000 0.360000 1.260000
v 1.140000 0.240000 1.140000
v 1.140000 0.360000 1.140000
v 1.260000 0.240000 1.260000
v 1.260000 0.360000 1.260000
v 1.260000 0.240000 1.140000
v 1.260000 0.360000 1.140000
v -1.140000 0.240000 1.260000
v -1.140000 0.360000 1.260000
v -1.140000 0.240000 1.140000
v -1.140000 0.360000 1.140000
v -1.260000 0.240000 1.260000
v -1.260000 0.360000 1.260000
v -1.260000 0.240000 1.140000
v -1.260000 0.360000 1.140000
v 1.140000 0.240000 -1.260000
v 1.140000 0.360000 -1.260000
v 1.140000 0.240000 -1.140000
v 1.140000 0.360000 -1.140000
v 1.260000 0.240000 -1.260000
v 1.260000 0.360000 -1.260000
v 1.260000 0.240000 -1.140000
v 1.260000 0.360000 -1.140000
v -1.140000 0.240000 -1.260000
v -1.140000 0.360000 -1.260000
v -1.140000 0.240000 -1.140000
v -1.140000 0.360000 -1.140000
v -1.260000 0.240000 -1.260000
v -1.260000 0.360000 -1.260000
v -1.260000 0.240000 -1.140000
v -1.260000 0.360000 -1.140000
vt 0.375000 0.000000
vt 0.625000 0.000000
vt 0.625000 0.250000
vt 0.375000 0.250000
vt 0.625000 0.500000
vt 0.375000 0.500000
vt 0.625000 0.750000
vt 0.375000 0.750000
vt 0.625000 1.000000
vt 0.375000 1.000000
vt 0.125000 0.500000
vt 0.125000 0.750000
vt 0.875000 0.500000
vt 0.875000 0.750000
vt 0.375000 0.000000
vt 0.375000 0.250000
vt 0.625000 0.250000
vt 0.625000 0.000000
vt 0.375000 0.500000
vt 0.625000 0.500000
vt 0.375000 0.750000
vt 0.625000 0.750000
vt 0.375000 1.000000
vt 0.625000 1.000000
vt 0.125000 0.500000
vt 0.125000 0.750000
vt 0.875000 0.750000
vt 0.875000 0.500000
vt 0.375000 0.000000
vt 0.375000 0.250000
vt 0.625000 0.250000
vt 0.625000 0.000000
vt 0.375000 0.500000
vt 0.625000 0.500000
vt 0.375000 0.750000
vt 0.625000 0.750000
vt 0.375000 1.000000
vt 0.625000 1.000000
vt 0.125000 0.500000
vt 0.125000 0.750000
vt 0.875000 0.750000
vt 0.875000 0.500000
vt 0.375000 0.000000
vt 0.625000 0.000000
vt 0.625000 0.250000
vt 0.375000 0.250000
vt 0.625000 0.500000
vt 0.375000 0.500000
vt 0.625000 0.750000
vt 0.375000 0.750000
vt 0.625000 1.000000
vt 0.375000 1.000000
vt 0.125000 0.500000
vt 0.125000 0.750000
vt 0.875000 0.500000
vt 0.875000 0.750000
vn -1.0000 0.0000 0.0000
vn 0.0000 0.0000 -1.0000
vn 1.0000 0.0000 0.0000
vn 0.0000 0.0000 1.0000
vn 0.0000 -1.0000 0.0000
vn 0.0000 1.0000 0.0000
usemtl GlowingRed
s off
f 31/72/15 32/73/15 34/74/15 33/75/15
f 33/75/16 34/74/16 38/76/16 37/77/16
f 37/77/17 38/76/17 36/78/17 35/79/17
f 35/79/18 36/78/18 32/80/18 31/81/18
f 33/82/19 37/77/19 35/79/19 31/83/19
f 38/76/20 34/84/20 32/85/20 36/78/20
f 39/86/17 41/87/17 42/88/17 40/89/17
f 41/87/16 45/90/16 46/91/16 42/88/16
f 45/90/15 43/92/15 44/93/15 46/91/15
f 43/92/18 39/94/18 40/95/18 44/93/18
f 41/96/19 39/97/19 43/92/19 45/90/19
f 46/91/20 44/93/20 40/98/20 42/99/20
f 47/100/15 49/101/15 50/102/15 48/103/15
f 49/101/18 53/104/18 54/105/18 50/102/18
f 53/104/17 51/106/17 52/107/17 54/105/17
f 51/106/16 47/108/16 48/109/16 52/107/16
f 49/110/19 47/111/19 51/106/19 53/104/19
f 54/105/20 52/107/20 48/112/20 50/113/20
f 55/114/17 56/115/17 58/116/17 57/117/17
f 57/117/18 58/116/18 62/118/18 61/119/18
f 61/119/15 62/118/15 60/120/15 59/121/15
f 59/121/16 60/120/16 56/122/16 55/123/16
f 57/124/19 61/119/19 59/121/19 55/125/19
f 62/118/20 58/126/20 56/127/20 60/120/20
o Cube.001_Cube.004
v 1.177953 0.002731 1.222047
v 1.177953 0.267269 1.222047
v 1.177953 0.002731 1.177953
v 1.177953 0.267269 1.177953
v 1.222047 0.002731 1.222047
v 1.222047 0.267269 1.222047
v 1.222047 0.002731 1.177953
v 1.222047 0.267269 1.177953
v -1.177953 0.002731 1.222047
v -1.177953 0.267269 1.222047
v -1.177953 0.002731 1.177953
v -1.177953 0.267269 1.177953
v -1.222047 0.002731 1.222047
v -1.222047 0.267269 1.222047
v -1.222047 0.002731 1.177953
v -1.222047 0.267269 1.177953
v 1.177953 0.002731 -1.222047
v 1.177953 0.267269 -1.222047
v 1.177953 0.002731 -1.177953
v 1.177953 0.267269 -1.177953
v 1.222047 0.002731 -1.222047
v 1.222047 0.267269 -1.222047
v 1.222047 0.002731 -1.177953
v 1.222047 0.267269 -1.177953
v -1.177953 0.002731 -1.222047
v -1.177953 0.267269 -1.222047
v -1.177953 0.002731 -1.177953
v -1.177953 0.267269 -1.177953
v -1.222047 0.002731 -1.222047
v -1.222047 0.267269 -1.222047
v -1.222047 0.002731 -1.177953
v -1.222047 0.267269 -1.177953
vt 0.167210 0.999803
vt 0.167210 0.000197
vt 0.333831 0.000197
vt 0.333831 0.999803
vt 0.000197 0.999803
vt 0.000197 0.000197
vt 0.166817 0.000197
vt 0.166817 0.999803
vt 0.501237 0.999803
vt 0.501237 0.000197
vt 0.667858 0.000197
vt 0.667858 0.999803
vt 0.334224 0.999803
vt 0.334224 0.000197
vt 0.500844 0.000197
vt 0.500844 0.999803
vt 0.668251 0.000197
vt 0.834871 0.000197
vt 0.834871 0.166817
vt 0.668251 0.166817
vt 0.668251 0.167210
vt 0.834871 0.167210
vt 0.834871 0.333830
vt 0.668251 0.333830
vt 0.167210 0.999803
vt 0.333831 0.999803
vt 0.333831 0.000197
vt 0.167210 0.000197
vt 0.000197 0.999803
vt 0.166817 0.999803
vt 0.166817 0.000197
vt 0.000197 0.000197
vt 0.501237 0.999803
vt 0.667858 0.999803
vt 0.667858 0.000197
vt 0.501237 0.000197
vt 0.334224 0.999803
vt 0.500844 0.999803
vt 0.500844 0.000197
vt 0.334224 0.000197
vt 0.668251 0.000197
vt 0.668251 0.166817
vt 0.834871 0.166817
vt 0.834871 0.000197
vt 0.668251 0.167210
vt 0.668251 0.333830
vt 0.834871 0.333830
vt 0.834871 0.167210
vt 0.167210 0.999803
vt 0.333831 0.999803
vt 0.333831 0.000197
vt 0.167210 0.000197
vt 0.000197 0.999803
vt 0.166817 0.999803
vt 0.166817 0.000197
vt 0.000197 0.000197
vt 0.501237 0.999803
vt 0.667858 0.999803
vt 0.667858 0.000197
vt 0.501237 0.000197
vt 0.334224 0.999803
vt 0.500844 0.999803
vt 0.500844 0.000197
vt 0.334224 0.000197
vt 0.668251 0.000197
vt 0.668251 0.166817
vt 0.834871 0.166817
vt 0.834871 0.000197
vt 0.668251 0.167210
vt 0.668251 0.333830
vt 0.834871 0.333830
vt 0.834871 0.167210
vt 0.167210 0.999803
vt 0.167210 0.000197
vt 0.333831 0.000197
vt 0.333831 0.999803
vt 0.000197 0.999803
vt 0.000197 0.000197
vt 0.166817 0.000197
vt 0.166817 0.999803
vt 0.501237 0.999803
vt 0.501237 0.000197
vt 0.667858 0.000197
vt 0.667858 0.999803
vt 0.334224 0.999803
vt 0.334224 0.000197
vt 0.500844 0.000197
vt 0.500844 0.999803
vt 0.668251 0.000197
vt 0.834871 0.000197
vt 0.834871 0.166817
vt 0.668251 0.166817
vt 0.668251 0.167210
vt 0.834871 0.167210
vt 0.834871 0.333830
vt 0.668251 0.333830
vn -1.0000 0.0000 0.0000
vn 0.0000 0.0000 -1.0000
vn 1.0000 0.0000 0.0000
vn 0.0000 0.0000 1.0000
vn 0.0000 -1.0000 0.0000
vn 0.0000 1.0000 0.0000
usemtl Wood
s off
f 63/128/21 64/129/21 66/130/21 65/131/21
f 65/132/22 66/133/22 70/134/22 69/135/22
f 69/136/23 70/137/23 68/138/23 67/139/23
f 67/140/24 68/141/24 64/142/24 63/143/24
f 65/144/25 69/145/25 67/146/25 63/147/25
f 70/148/26 66/149/26 64/150/26 68/151/26
f 71/152/23 73/153/23 74/154/23 72/155/23
f 73/156/22 77/157/22 78/158/22 74/159/22
f 77/160/21 75/161/21 76/162/21 78/163/21
f 75/164/24 71/165/24 72/166/24 76/167/24
f 73/168/25 71/169/25 75/170/25 77/171/25
f 78/172/26 76/173/26 72/174/26 74/175/26
f 79/176/21 81/177/21 82/178/21 80/179/21
f 81/180/24 85/181/24 86/182/24 82/183/24
f 85/184/23 83/185/23 84/186/23 86/187/23
f 83/188/22 79/189/22 80/190/22 84/191/22
f 81/192/25 79/193/25 83/194/25 85/195/25
f 86/196/26 84/197/26 80/198/26 82/199/26
f 87/200/23 88/201/23 90/202/23 89/203/23
f 89/204/24 90/205/24 94/206/24 93/207/24
f 93/208/21 94/209/21 92/210/21 91/211/21
f 91/212/22 92/213/22 88/214/22 87/215/22
f 89/216/25 93/217/25 91/218/25 87/219/25
f 94/220/26 90/221/26 88/222/26 92/223/26
o Cylinder.001
v 0.868758 0.007187 0.501578
v 0.868758 0.007187 -0.501578
v -0.868759 0.007187 -0.501578
v -0.868759 0.007187 0.501578
v -0.000000 0.007187 1.003156
v -0.000000 0.007187 -1.003156
v 0.848859 0.137671 0.490089
v 0.868758 0.117771 0.501578
v 0.868758 0.117771 -0.501578
v 0.848859 0.137671 -0.490089
v -0.848859 0.137671 -0.490089
v -0.868759 0.117771 -0.501578
v -0.868759 0.117771 0.501578
v -0.848859 0.137671 0.490089
v -0.000000 0.117771 1.003156
v -0.000000 0.137671 0.980178
v -0.000000 0.137671 -0.980178
v -0.000000 0.117771 -1.003156
vt -0.286545 -0.074527
vt 0.548952 -0.452297
vt 0.544115 -0.335563
vt -0.191422 -0.009481
vt 0.290511 1.452297
vt -0.417551 0.835055
vt -0.310530 0.788822
vt 0.312729 1.340664
vt 1.207396 0.137001
vt 1.186550 1.069301
vt 0.319281 1.311114
vt -0.283781 0.779337
vt -0.169410 0.007829
vt 0.541026 -0.307361
vt 1.243197 1.196895
vt 1.215042 1.091874
vt 1.340761 0.063324
vt 1.340761 1.093443
vt 1.233172 0.124097
vn 0.5000 0.0000 0.8660
vn -1.0000 0.0000 0.0000
vn 0.0000 1.0000 0.0000
vn -0.5000 0.0000 -0.8660
vn 0.5000 0.0000 -0.8660
vn -0.5000 0.0000 0.8660
vn -0.7071 0.7071 0.0000
vn -0.3536 0.7071 0.6124
vn 0.7071 0.7071 0.0000
vn -0.3536 0.7071 -0.6124
vn 0.3536 0.7071 -0.6124
vn 0.3536 0.7071 0.6124
vn 1.0000 0.0000 0.0000
usemtl ButtonSurface
s off
f 99/224/27 95/225/27 102/226/27 109/227/27
f 97/228/28 98/229/28 107/230/28 106/231/28
f 104/232/29 111/233/29 105/234/29 108/235/29 110/236/29 101/237/29
f 100/238/30 97/228/30 106/231/30 112/239/30
f 96/240/31 100/241/31 112/239/31 103/242/31
f 98/229/32 99/224/32 109/227/32 107/230/32
f 106/231/33 107/230/33 108/235/33 105/234/33
f 107/230/34 109/227/34 110/236/34 108/235/34
f 102/226/35 103/242/35 104/232/35 101/237/35
f 112/239/36 106/231/36 105/234/36 111/233/36
f 103/242/37 112/239/37 111/233/37 104/232/37
f 109/227/38 102/226/38 101/237/38 110/236/38
f 95/225/39 96/240/39 103/242/39 102/226/39
