# Blender v2.83.0 OBJ File: 'SwitchOn.blend'
# www.blender.org
mtllib SwitchOn.mtl
o Cube_Cube.003
v 1.127977 0.227977 1.272023
v 1.127977 0.372023 1.272023
v 1.127977 0.227977 1.127977
v 1.127977 0.372023 1.127977
v 1.272023 0.227977 1.272023
v 1.272023 0.372023 1.272023
v 1.272023 0.227977 1.127977
v 1.272023 0.372023 1.127977
v -1.127977 0.227977 1.272023
v -1.127977 0.372023 1.272023
v -1.127977 0.227977 1.127977
v -1.127977 0.372023 1.127977
v -1.272023 0.227977 1.272023
v -1.272023 0.372023 1.272023
v -1.272023 0.227977 1.127977
v -1.272023 0.372023 1.127977
v 1.127977 0.227977 -1.272023
v 1.127977 0.372023 -1.272023
v 1.127977 0.227977 -1.127977
v 1.127977 0.372023 -1.127977
v 1.272023 0.227977 -1.272023
v 1.272023 0.372023 -1.272023
v 1.272023 0.227977 -1.127977
v 1.272023 0.372023 -1.127977
v -1.127977 0.227977 -1.272023
v -1.127977 0.372023 -1.272023
v -1.127977 0.227977 -1.127977
v -1.127977 0.372023 -1.127977
v -1.272023 0.227977 -1.272023
v -1.272023 0.372023 -1.272023
v -1.272023 0.227977 -1.127977
v -1.272023 0.372023 -1.127977
vt 0.375000 0.000000
vt 0.625000 0.000000
vt 0.625000 0.250000
vt 0.375000 0.250000
vt 0.625000 0.500000
vt 0.375000 0.500000
vt 0.625000 0.750000
vt 0.375000 0.750000
vt 0.625000 1.000000
vt 0.375000 1.000000
vt 0.125000 0.500000
vt 0.125000 0.750000
vt 0.875000 0.500000
vt 0.875000 0.750000
vt 0.375000 0.000000
vt 0.375000 0.250000
vt 0.625000 0.250000
vt 0.625000 0.000000
vt 0.375000 0.500000
vt 0.625000 0.500000
vt 0.375000 0.750000
vt 0.625000 0.750000
vt 0.375000 1.000000
vt 0.625000 1.000000
vt 0.125000 0.500000
vt 0.125000 0.750000
vt 0.875000 0.750000
vt 0.875000 0.500000
vt 0.375000 0.000000
vt 0.375000 0.250000
vt 0.625000 0.250000
vt 0.625000 0.000000
vt 0.375000 0.500000
vt 0.625000 0.500000
vt 0.375000 0.750000
vt 0.625000 0.750000
vt 0.375000 1.000000
vt 0.625000 1.000000
vt 0.125000 0.500000
vt 0.125000 0.750000
vt 0.875000 0.750000
vt 0.875000 0.500000
vt 0.375000 0.000000
vt 0.625000 0.000000
vt 0.625000 0.250000
vt 0.375000 0.250000
vt 0.625000 0.500000
vt 0.375000 0.500000
vt 0.625000 0.750000
vt 0.375000 0.750000
vt 0.625000 1.000000
vt 0.375000 1.000000
vt 0.125000 0.500000
vt 0.125000 0.750000
vt 0.875000 0.500000
vt 0.875000 0.750000
vn -1.0000 0.0000 0.0000
vn 0.0000 0.0000 -1.0000
vn 1.0000 0.0000 0.0000
vn 0.0000 0.0000 1.0000
vn 0.0000 -1.0000 0.0000
vn 0.0000 1.0000 0.0000
usemtl GlowingGreen
s off
f 1/1/1 2/2/1 4/3/1 3/4/1
f 3/4/2 4/3/2 8/5/2 7/6/2
f 7/6/3 8/5/3 6/7/3 5/8/3
f 5/8/4 6/7/4 2/9/4 1/10/4
f 3/11/5 7/6/5 5/8/5 1/12/5
f 8/5/6 4/13/6 2/14/6 6/7/6
f 9/15/3 11/16/3 12/17/3 10/18/3
f 11/16/2 15/19/2 16/20/2 12/17/2
f 15/19/1 13/21/1 14/22/1 16/20/1
f 13/21/4 9/23/4 10/24/4 14/22/4
f 11/25/5 9/26/5 13/21/5 15/19/5
f 16/20/6 14/22/6 10/27/6 12/28/6
f 17/29/1 19/30/1 20/31/1 18/32/1
f 19/30/4 23/33/4 24/34/4 20/31/4
f 23/33/3 21/35/3 22/36/3 24/34/3
f 21/35/2 17/37/2 18/38/2 22/36/2
f 19/39/5 17/40/5 21/35/5 23/33/5
f 24/34/6 22/36/6 18/41/6 20/42/6
f 25/43/3 26/44/3 28/45/3 27/46/3
f 27/46/4 28/45/4 32/47/4 31/48/4
f 31/48/1 32/47/1 30/49/1 29/50/1
f 29/50/2 30/49/2 26/51/2 25/52/2
f 27/53/5 31/48/5 29/50/5 25/54/5
f 32/47/6 28/55/6 26/56/6 30/49/6
